<svg xmlns="http://www.w3.org/2000/svg" width="600" height="600" viewBox="0 0 600 600">
  <defs>
    <style>
      .cls-1 {
        fill: none;
        stroke: #fff;
        stroke-width: 20px;
      }

      .cls-2 {
        fill: #fff;
        fill-rule: evenodd;
      }
    </style>
  </defs>
  <rect class="cls-1" x="20" y="20" width="561" height="561" rx="36" ry="36"/>
  <path id="Bh" class="cls-2" d="M291.221,306.228q-15.3-9.6-42.6-11.4v-1.8q27.6-3.3,42.9-16.35t15.3-33.45q0-23.4-18.6-35.7-15.9-10.5-48.3-10.8h-58.5a22.989,22.989,0,0,1-6-.9h-3.6q-7.5,0-7.5,2.841,0,3.163,8.1,3.159,13.2,0.3,15.3,3.9,1.2,2.1,1.2,15.3v162.3q0,11.4-1.95,13.65t-12.75,2.25q-9.3,0-9.3,2.55t5.1,2.55h36.6q33.9,0,40.8-.3,25.2-1.8,38.7-9,27.9-14.7,27.9-45.3,0-29.1-22.8-43.5h0Zm-26.85-28.35q-9.45,11.553-26.55,12.15l-16.5.6h-2.7v-87q10.8-.9,15.9-0.9,19.2,0,26.1,5.1,13.2,9.6,13.2,38.4Q273.821,266.331,264.371,277.878Zm5.85,107.25q-12.3,13.2-33,13.2-13.8,0-16.8-2.1-1.8-1.2-1.8-9.9v-89.4q24.3,0,33.3,2.7,30.6,9,30.6,46.8Q282.521,371.931,270.221,385.128Zm200.1,14.7q-9,0-10.5-1.05t-1.5-11.25v-103.8q0-8.1.6-9.6t4.5-1.5a63.69,63.69,0,0,1,6.75-.3q4.05,0,4.05-2.4,0-2.1-7.2-2.1h-43.5q-6.3,0-6.3,2.55,0,1.913,3.83,2.55h5.592q5.3-.6,5.888,2.953,0.589,1.182.59,10.622v40.725h-56.7v-47.4q0-5.1,1.322-6.15t6.333-1.05q7.945,0.3,7.945-2.4,0-2.4-5.1-2.4h-47.4q-4.2,0-4.2,1.8,0,2.7,10.2,3,5.1,0,5.4,2.4,0.3,0.6.3,9v112.2q-0.6,3.3-7.2,3.6-8.7.3-8.7,2.4t4.5,2.1h46.5q6,0,6-2.1c0-1.4-1.083-2.1-3.239-2.1q-8.247-.3-10.158-1.2t-2.5-4.2v-61.8h56.7v54.9q0,8.4-.59,9.9-0.591,2.4-10.3,2.7c-3.337.188-5.006,0.834-5.006,1.95q0,2.25,6.6,1.95h41.7q9,0,9-2.1,0-2.4-4.2-2.4h0Z"/>
  <path id="bougie.haus" class="cls-2" d="M188.5,423.8a10.188,10.188,0,0,0-7.425-2.732,7.427,7.427,0,0,0-6.27,2.708V408.856h-0.22a3.775,3.775,0,0,0-1.155.332,15.915,15.915,0,0,1-5.83,1.093h-0.77q-0.6,0-.6.332,0,0.381,1.32.38a8.1,8.1,0,0,1,2.145.143q0.714,0.381.715,5.177v24.7q0,1.568.44,1.568A2.676,2.676,0,0,0,172,442.13a2.791,2.791,0,0,1,1.375-.452,10.225,10.225,0,0,1,2.53.618,11.764,11.764,0,0,0,15.4-11.258A9.649,9.649,0,0,0,188.5,423.8Zm-4.466,16.179a5.539,5.539,0,0,1-4.807,2.132q-3.428,0-4.035-1.991-0.387-1.23-.387-7.771,0-6.255.5-7.487a4.307,4.307,0,0,1,1.878-2.061,5.6,5.6,0,0,1,2.93-.83,5.2,5.2,0,0,1,4.559,2.417,12.241,12.241,0,0,1,1.63,6.871q0,5.544-2.266,8.72h0Zm28.143-15.752a11.562,11.562,0,0,0-8.278-3.159,11.338,11.338,0,0,0-8.167,3.135,10.461,10.461,0,0,0-3.273,7.885,10.1,10.1,0,0,0,3.355,7.719,11.819,11.819,0,0,0,8.36,3.111,11.222,11.222,0,0,0,8.085-3.111,10.261,10.261,0,0,0,3.245-7.719A10.4,10.4,0,0,0,212.174,424.222Zm-3.988,16.364a4.316,4.316,0,0,1-3.74,1.662,5.89,5.89,0,0,1-5.142-2.683q-1.844-2.683-1.843-7.482a14.1,14.1,0,0,1,1.733-7.576,5.414,5.414,0,0,1,4.812-2.731q3.245,0,4.62,2.137,1.869,2.9,1.87,8.123,0,5.415-2.31,8.55h0Zm33.558-.19a19.7,19.7,0,0,1-3.072-.143,1.127,1.127,0,0,1-.843-1.045,33.2,33.2,0,0,1-.163-4.322V421.633h-7.48q-1.155,0-1.155.284,0,0.473,2.31.425a4.094,4.094,0,0,1,1.238.119,0.894,0.894,0,0,1,.357.827v1.56a12.976,12.976,0,0,1,.165,2.411v7.327a9.045,9.045,0,0,1-.99,4.822,4.777,4.777,0,0,1-4.29,2.08q-2.7,0-3.575-1.843a13.524,13.524,0,0,1-.55-4.822v-13.19a31.274,31.274,0,0,1-3.575.19c-0.11,0-.477-0.02-1.1-0.063q-1.87-.126-2.86-0.127c-0.624,0-.935.112-0.935,0.333q0,0.476,1.485.38h0.715a2.355,2.355,0,0,1,1.485.33,4.554,4.554,0,0,1,.22,1.934v10.8a29.737,29.737,0,0,0,.136,3.822,3.607,3.607,0,0,0,.846,1.556q1.746,2.028,5.784,2.028a8.621,8.621,0,0,0,7.039-3.04v2.66a0.315,0.315,0,0,0,.33.38,0.985,0.985,0,0,0,.385-0.095,22.4,22.4,0,0,1,7.535-1.615q1.209-.046,1.21-0.38t-0.652-.332h0Zm21.882-18.953a5.341,5.341,0,0,0-4.345,2.233,11.905,11.905,0,0,0-3.273-2.09,10.671,10.671,0,0,0-3.657-.523,10.187,10.187,0,0,0-6.655,2.067,6.726,6.726,0,0,0-2.53,5.486,6.816,6.816,0,0,0,3.3,5.89q-5.061,1.331-5.06,4.75,0,2.756,3.905,4.085a14.23,14.23,0,0,0-3.85,1.187,4.428,4.428,0,0,0-2.42,4.085,4.914,4.914,0,0,0,2.612,4.394,13.771,13.771,0,0,0,7.178,1.591,17.955,17.955,0,0,0,10.2-2.707q4.043-2.708,4.043-6.793a5.115,5.115,0,0,0-1.9-4.227,8.189,8.189,0,0,0-5.252-1.52,28.547,28.547,0,0,0-4.125.332,32.985,32.985,0,0,1-4.235.428q-3.465,0-3.465-2.47a2.32,2.32,0,0,1,.935-1.758,3.119,3.119,0,0,1,2.09-.807,4.886,4.886,0,0,1,.935.19,16.973,16.973,0,0,0,3.63.712,9.626,9.626,0,0,0,6.435-2.185,6.814,6.814,0,0,0,2.585-5.415,13.312,13.312,0,0,0-.275-2.232q-0.276-1.471-.275-1.615a1.715,1.715,0,0,1,.605-1.211,1.8,1.8,0,0,1,1.265-.594,0.622,0.622,0,0,1,.77.617,1.823,1.823,0,0,1-.165.642,1.8,1.8,0,0,0-.165.593,1.267,1.267,0,0,0,.632,1.022,2.357,2.357,0,0,0,1.4.451,1.963,1.963,0,0,0,2.255-2.185q0-2.423-3.135-2.423h0Zm-11.22,13.87q-4.566,0-4.565-7.22,0-6.413,4.29-6.412,4.4,0,4.4,6.887,0,6.745-4.125,6.745h0Zm5.508,16.269a12.041,12.041,0,0,1-7.017,1.971,8.726,8.726,0,0,1-5.291-1.472,4.929,4.929,0,0,1,.8-8.408,34.685,34.685,0,0,0,4.468-.427,34.817,34.817,0,0,1,4.523-.428q5.373,0,5.373,3.943A5.751,5.751,0,0,1,257.914,451.582ZM269.9,410.328q-2.475,0-2.475,2.233a1.818,1.818,0,0,0,.715,1.449,2.66,2.66,0,0,0,1.76.593q2.475,0,2.475-2.137t-2.475-2.138h0Zm5.83,31.35a11.6,11.6,0,0,1-2.42-.189,0.636,0.636,0,0,1-.577-0.427,15.507,15.507,0,0,1-.083-2.227v-15.26a5.461,5.461,0,0,0-.434-2.607l-0.543.278a14.737,14.737,0,0,1-6.241,1.48q-0.923.042-.922,0.332c0,0.222.2,0.333,0.605,0.333h2.145a0.709,0.709,0,0,1,.688.214,7.206,7.206,0,0,1,.137,1.4V439.4a4.974,4.974,0,0,1-.192,1.972,5.858,5.858,0,0,1-2.283.261q-1.1,0-1.1.5c0,0.235.2,0.352,0.605,0.352a1.14,1.14,0,0,0,.66-0.19h5.72q1.1,0,2.75.1,1.374,0.094,1.32.095,0.935,0,.935-0.428,0-.38-0.77-0.38h0Zm20.845-4.845a0.673,0.673,0,0,0-.605.38,10.806,10.806,0,0,1-2.86,3.278,6.4,6.4,0,0,1-3.52.855,7.288,7.288,0,0,1-5.968-2.579q-2.118-2.58-2.117-7.36a17.159,17.159,0,0,1,.275-2.982q6.215-.141,6.6-0.142h3.85a32.415,32.415,0,0,0,4.675-.19,6.518,6.518,0,0,0-2.8-5.058,11.579,11.579,0,0,0-14.438,1.211,10.8,10.8,0,0,0-3.162,7.932,10.011,10.011,0,0,0,3.327,7.648,11.7,11.7,0,0,0,8.278,3.087,9.2,9.2,0,0,0,6.325-2.09,10.78,10.78,0,0,0,1.732-1.971,3.913,3.913,0,0,0,.853-1.686c0-.221-0.147-0.333-0.44-0.333h0Zm-14.63-9.357q1.1-5.7,5.555-5.7,4.509,0,4.73,5.7H281.94Zm49.5-1.348a12.125,12.125,0,0,0-8.25-2.975,12.421,12.421,0,0,0-8.47,2.975,9.206,9.206,0,0,0-3.41,7.19,9.4,9.4,0,0,0,3.41,7.384,12.433,12.433,0,0,0,8.47,2.971,12.137,12.137,0,0,0,8.25-2.971,9.214,9.214,0,0,0,3.41-7.194A9.4,9.4,0,0,0,331.439,426.128Zm40.478,15.6q-2.8,0-2.86-.475v-11.97a26.823,26.823,0,0,0-.11-3.183,5.212,5.212,0,0,0-1.155-2.945q-1.87-2.09-6.27-2.09a7.983,7.983,0,0,0-6.6,3.04V412.466q0-3.087-.385-3.658a5.986,5.986,0,0,0-.77.238,14.321,14.321,0,0,1-5.39,1.14q-1.6.051-1.87,0.1a0.315,0.315,0,0,0-.275.353q0,0.354,1.32.353,2.364,0.048,2.695.524,0.274,0.618.275,8.23v21.361q-0.055.713-1.32,0.665l-0.825.048h-0.825c-0.4,0-.605.11-0.605,0.329,0,0.193.2,0.288,0.605,0.288h0.55q0.5-.047,5.06,0h4.9c0.366,0,.55-0.11.55-0.331q0-.38-0.66-0.38-1.98-.046-2.365-0.118a0.542,0.542,0,0,1-.44-0.545,9.694,9.694,0,0,1-.055-1.469V427.512a5.128,5.128,0,0,1,.55-2.939,5.262,5.262,0,0,1,4.29-2.037q3.189,0,4.125,2.18a18.717,18.717,0,0,1,.44,5.355v9.619a4.368,4.368,0,0,1-.193,1.777,2.245,2.245,0,0,1-1.457.26q-2.091,0-2.09.332,0,0.379.715,0.379h10.01q0.935,0,.935-0.38h0c0-.158-0.165-0.268-0.5-0.332h0Zm21.724-1.805a1.547,1.547,0,0,0-.825.522,3.5,3.5,0,0,1-2.53.95q-1.32,0-1.6-1.71-0.055-.38-0.055-2.565v-8.882a12.26,12.26,0,0,0-.5-4.323q-1.376-2.85-7.425-2.85a9.975,9.975,0,0,0-6.27,1.758,4.789,4.789,0,0,0-2.035,3.847,2.415,2.415,0,0,0,.817,1.877,2.969,2.969,0,0,0,2.068.736q2.4,0,2.395-2.09a1.822,1.822,0,0,0-.538-1.283,1.631,1.631,0,0,0-1.21-.57c-0.448,0-.672-0.126-0.672-0.38a2.694,2.694,0,0,1,1.293-2.28,5.485,5.485,0,0,1,3.217-.9q3.079,0,3.96,2.422a19.264,19.264,0,0,1,.5,5.51V430.9a33.592,33.592,0,0,0-6.43,1.52q-5.4,2.28-5.395,6.175a3.791,3.791,0,0,0,1.532,3.111,6.068,6.068,0,0,0,3.886,1.211,6.973,6.973,0,0,0,6.456-3.515q0.163,3.373,3.94,3.373a9.073,9.073,0,0,0,3.748-.879q1.942-.877,1.943-1.686a0.248,0.248,0,0,0-.275-0.285h0ZM383.91,438.5a4.25,4.25,0,0,1-3.74,2.28,3.471,3.471,0,0,1-2.521-.974,3.321,3.321,0,0,1-1-2.494,4.131,4.131,0,0,1,1.762-3.491,15.118,15.118,0,0,1,5.828-2.114v3.468a9.15,9.15,0,0,1-.326,3.325h0Zm32.838,1.9a19.7,19.7,0,0,1-3.072-.143,1.125,1.125,0,0,1-.842-1.045,33.2,33.2,0,0,1-.163-4.322V421.633h-7.48q-1.155,0-1.155.284,0,0.473,2.31.425a4.086,4.086,0,0,1,1.237.119,0.894,0.894,0,0,1,.358.827v1.56a12.994,12.994,0,0,1,.164,2.411v7.327a9.046,9.046,0,0,1-.989,4.822,4.777,4.777,0,0,1-4.29,2.08q-2.7,0-3.575-1.843a13.524,13.524,0,0,1-.55-4.822v-13.19a31.274,31.274,0,0,1-3.575.19c-0.11,0-.477-0.02-1.1-0.063q-1.871-.126-2.86-0.127c-0.624,0-.936.112-0.936,0.333q0,0.476,1.485.38h0.716a2.355,2.355,0,0,1,1.485.33,4.561,4.561,0,0,1,.219,1.934v10.8a29.737,29.737,0,0,0,.136,3.822,3.6,3.6,0,0,0,.847,1.556q1.745,2.028,5.783,2.028a8.624,8.624,0,0,0,7.04-3.04v2.66a0.315,0.315,0,0,0,.33.38,0.985,0.985,0,0,0,.385-0.095,22.4,22.4,0,0,1,7.535-1.615q1.209-.046,1.21-0.38t-0.653-.332h0Zm14.457-8.146q-1.541-1.286-7.26-3.238-3.685-1.238-3.685-3.618a3.135,3.135,0,0,1,1.21-2.523,4.67,4.67,0,0,1,3.08-1,5.953,5.953,0,0,1,3.492,1.055,5.55,5.55,0,0,1,2.118,2.78q0.495,1.438.825,1.437a0.365,0.365,0,0,0,.44-0.38v-0.095a23.082,23.082,0,0,1-.275-3.657v-2.28a0.337,0.337,0,0,0-.382-0.38,0.561,0.561,0,0,0-.491.475,1.3,1.3,0,0,1-1.419.95,3.925,3.925,0,0,1-.982-0.143,14.344,14.344,0,0,0-3.274-.57,7.524,7.524,0,0,0-5.129,1.81,5.707,5.707,0,0,0-2.073,4.475q0,4,6.105,6,3.079,1,3.712,1.262a5.972,5.972,0,0,1,1.4.881A3.576,3.576,0,0,1,430,438.44a3.284,3.284,0,0,1-1.21,2.666,4.846,4.846,0,0,1-3.19,1,7.46,7.46,0,0,1-5.885-2.489,6.54,6.54,0,0,1-1.43-3.445,0.486,0.486,0,0,0-.495-0.526q-0.386,0-.385.522v6.365a0.336,0.336,0,0,0,.382.38,0.7,0.7,0,0,0,.6-0.57,1.237,1.237,0,0,1,1.147-.9,3.048,3.048,0,0,1,1.257.332,12.017,12.017,0,0,0,4.533,1.14,8.4,8.4,0,0,0,5.544-1.928,5.89,5.89,0,0,0,2.321-4.689,5.108,5.108,0,0,0-1.98-4.046h0Z"/>
  <path id="_19" data-name="19" class="cls-2" d="M88.362,127.979h-5.5q-2.1-.1-2.45-0.7t-0.35-4.2v-63.5a0.807,0.807,0,0,0-.8-1,3.412,3.412,0,0,0-1.492.9,25.031,25.031,0,0,1-7.663,5.55,28.141,28.141,0,0,1-9.455,2.85q-1.2.1-1.194,0.9,0,0.7,1.211.7,0.4,0,1.614-.1,6.056-.5,6.561-0.5a1.311,1.311,0,0,1,1.413.6,18.89,18.89,0,0,1,.2,3.792V120.2a47.485,47.485,0,0,1-.25,6.241q-0.251,1.447-3.35,1.546-2.5.1-4.7,0.1-1.4,0-1.4.9t2.392,0.9H87.57q2.192,0,2.192-.893h0q0-1.006-1.4-1.007h0Zm41.749-60.1q-6.45-8.6-16.65-8.6a18.078,18.078,0,0,0-14.15,6.75,24.109,24.109,0,0,0-5.85,16.35q0,11.3,7.9,17.1a19.686,19.686,0,0,0,12,4,17.6,17.6,0,0,0,12.4-5.2,54.122,54.122,0,0,1-3.5,15q-6.3,14.6-23.2,16.8-1.4.2-1.4,0.8,0,0.7,2.6.7a37.186,37.186,0,0,0,14.4-3q9.8-4.1,15.85-14.75a47.23,47.23,0,0,0,6.05-23.75Q136.561,76.481,130.111,67.879Zm-6.95,28.55a8.99,8.99,0,0,1-8,4.65q-11.5,0-11.5-18.5,0-21.6,10.3-21.6a8.968,8.968,0,0,1,7.9,4.5q4.2,6.6,4.2,18Q126.061,91.781,123.161,96.429Z"/>
  <path id="_24.1318" data-name="24.1318" class="cls-2" d="M227.7,528.938q-0.759,0-1.166,2.333-0.585,3.384-1.4,3.908a5.688,5.688,0,0,1-2.275.729q-1.284.147-6.125,0.146-5.835,0-9.684.117,10.208-6.417,14.525-11.871a18.8,18.8,0,0,0,4.317-11.929A12.727,12.727,0,0,0,222.1,502.8a11.374,11.374,0,0,0-8.225-3.15,11.776,11.776,0,0,0-7.991,2.625,8.727,8.727,0,0,0-3.034,6.942,5.094,5.094,0,0,0,1.284,3.675,4.535,4.535,0,0,0,3.441,1.342q3.382,0,3.384-3.209,0-3.382-4.084-3.558-1.575-.057-1.575-1.05a4.6,4.6,0,0,1,1.517-3.15,6.868,6.868,0,0,1,5.25-2.042,6.341,6.341,0,0,1,5.25,2.337q2.449,3.039,2.45,8.938a23.177,23.177,0,0,1-5.367,15.248,79.092,79.092,0,0,1-10.383,9.7q-3.034,2.454-3.033,2.921,0,0.585,1.575.584-0.468,0,3.15-.146t7.758-.145q7.7,0,13.708.291l0.059-.7q0.641-7.583.933-9.508c0.077-.5.117-0.817,0.117-0.933q0-.876-0.584-0.875h0Zm32.2,4.52q-0.06-.553-0.117-2.712v-6.825q0-1.632-.85-1.633-0.606,0-.667,2.1V526.9a1.169,1.169,0,0,1-1.124,1.167,15.969,15.969,0,0,1-3.083.233h-0.576v-27.36q0-1.107-.583-1.107a1.1,1.1,0,0,0-.818.524q-9.157,12.892-11.841,16.685-8.574,11.783-8.575,12.075,0,0.408.817,0.466l7.408,0.175H241q0.99-.057,1.808-0.058H245.2q1.515,0,2.683.058v7.1a8.4,8.4,0,0,1-.175,2.2,1,1,0,0,1-.875.616,17.63,17.63,0,0,1-3.617.234q-1.692-.057-1.691.5t1.166,0.552c0.467,0,.894-0.02,1.284-0.058q10.732-.117,13.066-0.117t2.334-.408a0.8,0.8,0,0,0-.06-0.35,2.807,2.807,0,0,0-1.531-.233,18.338,18.338,0,0,1-3.329-.175,1.4,1.4,0,0,1-.972-0.875v-9.159q0.582-.057,1.225-0.058a7.354,7.354,0,0,1,3.092.408,1.136,1.136,0,0,1,.466.7q0.291,2.976.438,3.646a0.693,0.693,0,0,0,.671.671,0.515,0.515,0,0,0,.583-0.583C259.953,534.129,259.933,533.829,259.9,533.458Zm-11.842-17.179q-0.175,4.959-.175,7.875V528.3h-4.72q-7.108,0-9.264-.105l4.154-5.65q5.187-7.061,7.753-10.62,1.848-2.637,2.427-3.575,0,2.1-.175,7.933h0ZM271.415,535.8a2.968,2.968,0,0,0-2.188-.913,3.1,3.1,0,0,0-3.15,3.12,3.09,3.09,0,0,0,.905,2.267,3.032,3.032,0,0,0,2.245.913,2.972,2.972,0,0,0,2.188-.913,3.025,3.025,0,0,0,.9-2.208A3.094,3.094,0,0,0,271.415,535.8Zm29.195,3.928H297.4a1.872,1.872,0,0,1-1.43-.408,7.656,7.656,0,0,1-.2-2.45V499.829a0.471,0.471,0,0,0-.465-0.583,1.992,1.992,0,0,0-.87.525,14.594,14.594,0,0,1-4.47,3.237,16.392,16.392,0,0,1-5.515,1.663c-0.465.039-.7,0.214-0.7,0.525q0,0.408.706,0.408c0.157,0,.47-0.019.942-0.058q3.533-.291,3.827-0.292a0.766,0.766,0,0,1,.824.35,11.074,11.074,0,0,1,.117,2.212v27.372a27.625,27.625,0,0,1-.146,3.641q-0.145.845-1.954,0.9-1.458.058-2.741,0.058-0.817,0-.817.525t1.395,0.524h14.243q1.278,0,1.279-.522h0q0-.587-0.817-0.587h0Zm30.566-18.783a14.861,14.861,0,0,0-7.817-2.158v-0.409a20.278,20.278,0,0,0,5.659-1.458,8.2,8.2,0,0,0,4.958-7.758,9.033,9.033,0,0,0-2.917-6.65q-2.918-2.857-8.458-2.859-4.842,0-7.554,2.129a6.476,6.476,0,0,0-2.713,5.28,4.122,4.122,0,0,0,1.2,3.091,4.352,4.352,0,0,0,3.179,1.167q3.091,0,3.092-2.975,0-2.275-3.85-3.208a0.807,0.807,0,0,1-.817-0.7,2.867,2.867,0,0,1,1.779-2.363,8.24,8.24,0,0,1,4.171-1.021,6.5,6.5,0,0,1,5.192,2.24,9.963,9.963,0,0,1-.292,12.153,10.172,10.172,0,0,1-6.3,2.994q-1.4.232-1.4,0.64,0,0.523.759,0.523h1.691q8.867,0,8.867,9.886a11.358,11.358,0,0,1-2.771,7.956,9.292,9.292,0,0,1-7.2,3.042,8.728,8.728,0,0,1-3.325-.617q-1.518-.616-1.517-1.379a1.452,1.452,0,0,1,1.109-.939q2.741-1.173,2.741-3.23a2.857,2.857,0,0,0-.991-2.23,3.641,3.641,0,0,0-2.509-.88,4.267,4.267,0,0,0-3.062,1.079,3.791,3.791,0,0,0-1.138,2.887,5.137,5.137,0,0,0,1.634,3.734q2.565,2.567,8.05,2.566a16.1,16.1,0,0,0,11.025-3.791,10.665,10.665,0,0,0,3.908-8.284,9.539,9.539,0,0,0-4.375-8.458h0Zm31.616,18.783h-3.208a1.867,1.867,0,0,1-1.429-.408,7.61,7.61,0,0,1-.2-2.45V499.829a0.471,0.471,0,0,0-.464-0.583,1.993,1.993,0,0,0-.871.525,14.594,14.594,0,0,1-4.47,3.237,16.392,16.392,0,0,1-5.515,1.663c-0.465.039-.7,0.214-0.7,0.525q0,0.408.706,0.408c0.157,0,.47-0.019.942-0.058q3.533-.291,3.827-0.292a0.766,0.766,0,0,1,.824.35,11.074,11.074,0,0,1,.117,2.212v27.372a27.877,27.877,0,0,1-.145,3.641q-0.147.845-1.955,0.9-1.458.058-2.741,0.058-0.817,0-.817.525t1.395,0.524H362.33q1.278,0,1.279-.522h0q0-.587-0.817-0.587h0Zm26.716-20.475-0.058-.233a8.161,8.161,0,0,0,5.075-3.3,9.967,9.967,0,0,0,2.041-6.154,9.333,9.333,0,0,0-4.083-7.817,11.636,11.636,0,0,0-7.175-2.1,11.423,11.423,0,0,0-8.079,2.888,9.673,9.673,0,0,0-3.121,7.437,8.394,8.394,0,0,0,2.013,5.629,10.942,10.942,0,0,0,5.57,3.355v0.291q-9.391,2.334-9.391,11.025a10,10,0,0,0,4.841,8.867,15.614,15.614,0,0,0,8.75,2.333A13.356,13.356,0,0,0,394,539.088a11.111,11.111,0,0,0,4.841-9.392q0-8.576-9.333-10.442h0Zm-0.058-2.5a3.828,3.828,0,0,1-3.675,1.919q-5.893,0-5.892-8.9,0-9.129,5.483-9.129a4.191,4.191,0,0,1,3.559,1.454q1.866,2.442,1.866,7.617a15.09,15.09,0,0,1-1.341,7.035h0Zm1.108,21.99a5.6,5.6,0,0,1-4.55,1.746,6.646,6.646,0,0,1-5.687-2.85,13.02,13.02,0,0,1-2.071-7.8,12.422,12.422,0,0,1,1.983-7.475,6.479,6.479,0,0,1,5.542-2.705q7.116,0,7.116,10.586,0,5.7-2.333,8.493h0Z"/>
</svg>
