<?xml version="1.0" encoding="utf-8"?>
<!-- Generator: Adobe Illustrator 19.2.1, SVG Export Plug-In . SVG Version: 6.00 Build 0)  -->
<svg version="1.1" id="layer" xmlns="http://www.w3.org/2000/svg" xmlns:xlink="http://www.w3.org/1999/xlink" x="0px" y="0px"
	 viewBox="0 0 652 652" style="enable-background:new 0 0 652 652;" xml:space="preserve">
<style type="text/css">
	.st0{fill:#00254A;}
	.st1{opacity:0;fill:none;stroke:#FFFFFF;stroke-width:0.5654;stroke-linecap:round;stroke-linejoin:round;stroke-miterlimit:10;}
</style>
<polygon class="st0" points="142,489.9 142,569.7 126.6,569.7 126.6,451.6 207.3,530.9 207.3,451 223.8,451 223.8,569.7 "/>
<g>
	<polygon class="st1" points="126.1,569.7 126.1,451 207.3,530.9 207.3,451 223.8,451 223.8,569.7 142,489.9 142,569.7 	"/>
</g>
<polygon class="st0" points="248.8,569.7 248.8,451 335.8,451 335.8,466.2 265.3,466.2 265.3,504.5 328.4,504.5 328.4,519.1 
	265.3,519.1 265.3,569.7 "/>
<polygon class="st1" points="248.8,569.7 265.3,569.7 265.3,519.1 328.4,519.1 328.4,504.5 265.3,504.5 265.3,466.2 335.8,466.2 
	335.8,451 248.8,451 "/>
<g>
	<path class="st0" d="M449.5,540.5c-10.2,9.6-20.5,15.7-36.4,15.7c-25,0-43.8-19.7-43.8-46.1c0-25.9,18.8-45.6,43.8-45.6
		c13.6,0,23.9,4.5,35.2,15.2l1.1,1.1l11.4-11.8l-1.1-1.1c-10.2-9.6-23.3-18.6-46.6-18.6c-34.7,0-60.3,26.4-60.3,61.3
		c0,34.9,25.6,60.7,59.7,60.7c23.9,0,37.5-10.1,47.7-20.2l1.1-1.1l-10.8-10.7L449.5,540.5z"/>
	<path class="st0" d="M460.9,98.4c-1.1-13.5-11.4-24.2-25.6-24.7c-15.3-1.1-65.4-1.7-79.6-1.7c25.6,17.4,29,50.1,31.3,111.4
		c1.7,36,0.6,163.1,0.6,168.7l-1.1,34.3L252.3,253.1v-41.6l106.9,106.3c0-21.4,0.6-48.4,0.6-73.7c0-24.2-0.6-46.1-1.1-57.9
		c-4-66.4-10.2-97.9-45.5-109.7c-10.8-3.9-20.5-5.1-37.5-5.1c-13.6,0-109.7,0-123.9,0.6c-14.8,1.1-24.4,11.2-25,25.3
		c-0.6,13.5-1.1,264.9,0,278.4c0.6,13.5,11.4,24.2,25,24.7c15.3,1.1,65.4,1.1,79.6,1.1c-25.6-17.4-29-50.6-31.3-111.4
		c-1.7-36.6,0-163.1,0-168.7l0.6-34.3l134.7,132.7v41.6L227.8,155.8c0,20.8-0.6,48.4-0.6,73.1s0.6,46.7,1.1,57.9
		c4,66.9,10.2,97.9,45.5,110.2c10.8,3.9,21,4.5,37.5,5.1c13.6,0,110.3,0,123.9-0.6c14.8-1.1,24.4-11.8,25.6-25.3
		C461.4,362.7,461.4,111.9,460.9,98.4"/>
	<polygon class="st0" points="478.5,96.7 478.5,77 471.1,77 471.1,72.5 490.4,72.5 490.4,77 483,77 483,96.7 	"/>
	<polygon class="st1" points="478.5,96.7 478.5,77 471.1,77 471.1,72.5 490.4,72.5 490.4,77 483,77 483,96.7 	"/>
	<polygon class="st0" points="493.3,96.7 493.3,72.5 500.7,72.5 505.2,88.8 509.2,72.5 516.6,72.5 516.6,96.7 512,96.7 512,77.6 
		507.5,96.7 502.9,96.7 497.8,77.6 497.8,96.7 	"/>
	<polygon class="st1" points="493.3,96.7 493.3,72.5 500.7,72.5 505.2,88.8 509.2,72.5 516.6,72.5 516.6,96.7 512,96.7 512,77.6 
		507.5,96.7 502.9,96.7 497.8,77.6 497.8,96.7 	"/>
</g>
</svg>
